<svg width="109" height="22" viewBox="0 0 109 22" fill="none" xmlns="http://www.w3.org/2000/svg">
<g clip-path="url(#clip0_193_10829)">
<path fill-rule="evenodd" clip-rule="evenodd" d="M3.42676 0.405661H6.05109V11.2674C5.24919 10.83 4.52024 10.3927 3.79125 9.8824C3.64545 9.80948 3.57255 9.73659 3.42676 9.59078V0.332764V0.405661ZM6.05109 17.7553V21.4731H3.42676V16.589C3.49966 16.589 3.57255 16.6619 3.64545 16.6619C3.93704 16.8077 4.22862 16.9535 4.52024 17.0993C4.81183 17.2451 5.10341 17.318 5.395 17.4638C5.6137 17.5367 5.8324 17.6096 6.12398 17.7553H6.05109Z" fill="#111827"/>
<path fill-rule="evenodd" clip-rule="evenodd" d="M8.74805 0.405762H11.3723V12.9442C10.4976 12.8713 9.54991 12.6526 8.74805 12.4339V0.47866V0.405762ZM11.3723 18.8489V21.4733H8.74805V18.4845C9.69573 18.7032 10.4247 18.776 11.3723 18.8489Z" fill="#111827"/>
<path fill-rule="evenodd" clip-rule="evenodd" d="M14.0693 0.405762H16.6937V12.2881C15.8189 12.5797 14.9441 12.7984 14.0693 12.8713V0.405762ZM16.6937 18.4845V21.5462H14.0693V18.9218C14.9441 18.8489 15.8189 18.7032 16.6937 18.5573V18.4845Z" fill="#111827"/>
<path fill-rule="evenodd" clip-rule="evenodd" d="M19.3906 0.405762H22.0149V9.59091C21.8692 9.73668 21.6505 9.80961 21.5046 9.95538L20.8486 10.3928C20.3383 10.6844 19.9009 10.9759 19.3906 11.1946V0.405762ZM22.0149 16.5162V21.4733H19.3906V17.6097C19.9009 17.391 20.4112 17.2452 20.8486 17.0265C21.2859 16.8078 21.7233 16.662 22.0879 16.4433L22.0149 16.5162Z" fill="#111827"/>
<path fill-rule="evenodd" clip-rule="evenodd" d="M12.6113 14.7666C11.2992 14.7666 10.1328 14.6208 9.03936 14.3292C8.60196 14.2563 7.94587 14.0376 7.5814 13.8918C7.3627 13.8189 7.144 13.746 6.85241 13.6002C5.97762 13.2357 5.68604 13.0899 4.88417 12.6526C4.30096 12.361 3.06171 11.632 2.55143 11.1946L1.45796 10.3927C1.31216 10.4656 0.145796 11.9965 0 12.2152C0.218694 12.5068 2.62432 14.1105 3.13461 14.4021L4.51966 15.1311C4.73836 15.2769 5.02994 15.3498 5.24864 15.4956C7.3627 16.4433 9.7683 17.0994 12.1739 17.0994C13.9964 17.0994 15.0899 17.0264 16.7665 16.5891C18.5161 16.1517 20.6301 15.3498 22.161 14.4021C22.3796 14.2563 22.5983 14.1105 22.89 13.9647C23.0357 13.8918 25.2956 12.4339 25.5143 12.2152C25.4414 11.9965 24.275 10.6114 24.1292 10.3198C23.7647 10.6114 23.4002 10.8301 22.9628 11.1217C20.0469 13.0899 16.4749 14.6937 12.6842 14.6937L12.6113 14.7666Z" fill="#111827"/>
<path d="M34.7723 19.0677V9.22644H32.877V7.11242H34.7723V6.89372C34.7723 6.6021 34.7723 6.23763 34.7723 5.87312C34.7723 5.50865 34.8452 5.14418 34.991 4.77966C35.0639 4.41519 35.2826 4.12359 35.5742 3.7591C35.9387 3.39461 36.3032 3.10302 36.6676 2.95722C37.0321 2.81142 37.4695 2.73853 37.834 2.73853C38.1985 2.73853 38.563 2.73853 38.8548 2.73853H40.3854V4.92548H39.0002C38.4901 4.92548 38.1256 5.07125 37.834 5.28995C37.6153 5.50865 37.4695 5.87312 37.4695 6.31051V7.03949H40.3854V9.15355H37.4695V18.9948H34.7723V19.0677Z" fill="#111827"/>
<path d="M42.6455 5.29004V2.81152H45.3426V5.29004H42.6455ZM42.6455 19.0678V7.11251H45.3426V19.0678H42.6455Z" fill="#111827"/>
<path d="M49.6433 19.0677V9.22644H47.748V7.11242H49.6433V6.89372C49.6433 6.6021 49.6433 6.23763 49.6433 5.87312C49.6433 5.50865 49.7163 5.14418 49.8621 4.77966C49.935 4.41519 50.1538 4.12359 50.4451 3.7591C50.8097 3.39461 51.1744 3.10302 51.5386 2.95722C51.9032 2.81142 52.3404 2.73853 52.705 2.73853C53.0697 2.73853 53.4339 2.73853 53.7256 2.73853H55.2566V4.92548H53.8714C53.3614 4.92548 52.9967 5.07125 52.705 5.28995C52.4862 5.50865 52.3404 5.87312 52.3404 6.31051V7.03949H55.2566V9.15355H52.3404V18.9948H49.6433V19.0677Z" fill="#111827"/>
<path d="M64.0044 19.0678C63.2026 19.2136 62.4737 19.2865 61.6716 19.2865C60.9427 19.2865 60.2138 19.1406 59.6304 18.8491C59.0474 18.5575 58.6099 18.193 58.2456 17.6098C57.9539 17.0995 57.8081 16.5892 57.8081 16.0061C57.8081 15.4958 57.8081 14.8397 57.8081 14.1836V9.22653H55.6211V7.11251H57.8081V2.81152H60.4326V7.11251H63.9315V9.22653H60.4326V14.0378C60.4326 14.5481 60.4326 14.9126 60.4326 15.2771C60.4326 15.6415 60.5055 15.9331 60.651 16.1518C60.9427 16.5892 61.3073 16.8079 61.8903 16.8808C62.4737 16.9537 63.1297 16.8808 63.8585 16.8079V19.0678H64.0044Z" fill="#111827"/>
<path d="M74.866 19.0677V13.3087C74.866 12.9442 74.866 12.5068 74.7931 12.0695C74.7202 11.6321 74.6473 11.1947 74.4285 10.7573C74.2097 10.3199 73.9909 9.95542 73.5538 9.73672C73.1891 9.44514 72.6791 9.29932 72.0227 9.29932C71.6585 9.29932 71.3668 9.37225 71.0022 9.44514C70.6379 9.59095 70.3462 9.73672 70.1274 10.0283C69.8357 10.3199 69.6174 10.6844 69.4715 11.1218C69.3257 11.5592 69.2527 12.1424 69.2527 12.8713V18.9948H66.5557V2.73853H68.961V8.35168C69.2527 7.98717 69.6174 7.69559 70.0545 7.404C70.8563 6.89372 71.8043 6.67502 72.8978 6.67502C73.7725 6.67502 74.5014 6.8208 75.0844 7.11242C75.6678 7.404 76.105 7.76848 76.4696 8.20587C76.8342 8.64327 77.0526 9.15355 77.1985 9.66383C77.3443 10.1741 77.4902 10.6844 77.4902 11.1218C77.5631 11.5592 77.5631 11.9237 77.5631 12.2152V18.9219H74.866V19.0677Z" fill="#111827"/>
<path d="M80.6982 19.0678V2.81152H82.3022V19.0678H80.6982Z" fill="#111827"/>
<path d="M97.9014 19.0678V2.81152H99.5053V8.49754C99.797 8.13307 100.088 7.84149 100.453 7.5499C101.255 7.03958 102.129 6.748 103.296 6.748C104.389 6.748 105.337 7.03958 106.139 7.5499C106.941 8.13307 107.524 8.86206 107.962 9.80973C108.399 10.7574 108.618 11.8509 108.618 13.0172C108.618 14.1836 108.399 15.2771 107.962 16.2248C107.524 17.1724 106.941 17.9014 106.139 18.4846C105.337 19.0678 104.389 19.2865 103.296 19.2865C102.202 19.2865 101.255 18.9949 100.526 18.4846C100.088 18.193 99.7241 17.7556 99.4324 17.3182V18.9949H97.9743L97.9014 19.0678ZM99.3595 13.0172V13.0901V13.163C99.3595 14.0378 99.5053 14.9126 99.797 15.5687C100.088 16.2976 100.453 16.8808 101.036 17.2453C101.619 17.6827 102.275 17.9014 103.15 17.9014C103.952 17.9014 104.681 17.6827 105.264 17.2453C105.848 16.8079 106.212 16.2248 106.503 15.4958C106.795 14.7668 106.941 13.9649 106.941 13.0172C106.941 12.1425 106.795 11.3406 106.503 10.6116C106.212 9.88262 105.848 9.29945 105.264 8.86206C104.681 8.42466 104.025 8.20596 103.15 8.20596C102.348 8.20596 101.619 8.42466 101.109 8.78917C100.526 9.22653 100.161 9.73681 99.8696 10.4658C99.5783 11.1948 99.4324 11.9967 99.4324 12.9443L99.3595 13.0172Z" fill="#111827"/>
<path fill-rule="evenodd" clip-rule="evenodd" d="M87.6968 14.1106C87.9885 13.9648 88.3531 13.819 88.7173 13.6732C89.2278 13.5274 89.8108 13.4545 90.3942 13.3087C91.0502 13.2358 91.6332 13.1629 92.2895 13.09L93.383 12.9442C93.383 13.6732 93.383 14.1106 93.2371 14.8396C93.0913 15.4228 92.8725 16.0059 92.5808 16.4433C92.2166 16.9536 91.779 17.3181 91.196 17.5368C90.6126 17.8284 89.9567 17.9742 89.2278 17.9742C88.5715 17.9742 88.0614 17.9013 87.6968 17.6826C87.3325 17.4639 87.0408 17.1723 86.822 16.8807C86.6762 16.5891 86.5303 16.2246 86.5303 15.8602C86.5303 15.4228 86.6033 15.0583 86.822 14.7667C87.0408 14.4751 87.2596 14.2564 87.6238 14.0377L87.6968 14.1106ZM89.0819 19.4321C90.2484 19.4321 91.2689 19.1406 92.1436 18.6303C92.7267 18.2658 93.1642 17.7555 93.6014 17.1723H93.6743V19.0676H95.1324V11.632C95.1324 11.1947 95.1324 10.7573 95.0595 10.3199C94.9866 9.8825 94.9136 9.51803 94.7678 9.15352C94.4765 8.35165 93.8931 7.76848 93.1642 7.40397C92.4353 6.96661 91.4873 6.8208 90.3942 6.8208C89.0819 6.8208 87.9885 7.11239 87.1867 7.69555C86.3845 8.27876 85.8015 9.08063 85.5098 10.1741L87.1137 10.6115C87.3325 9.80961 87.7697 9.22644 88.2802 8.86193C88.8632 8.49746 89.5191 8.27876 90.3213 8.27876C91.4873 8.27876 92.3624 8.57035 92.7996 9.15352C93.1642 9.51803 93.3101 10.1012 93.4559 10.7573V11.4863L92.2166 11.632C91.4873 11.705 90.7585 11.8507 90.0296 11.9237C89.3007 12.0694 88.6444 12.1423 87.9885 12.2881C87.405 12.434 86.895 12.6526 86.3845 12.9442C85.9473 13.2358 85.5827 13.6003 85.291 14.1106C84.9997 14.548 84.9268 15.1312 84.9268 15.7872C84.9268 16.4433 85.0726 17.0265 85.3639 17.5368C85.6556 18.0471 86.0932 18.4845 86.7491 18.849C87.3325 19.1406 88.1343 19.3593 89.009 19.3593L89.0819 19.4321Z" fill="#111827"/>
</g>
<defs>
<clipPath id="clip0_193_10829">
<rect width="109" height="21.3345" fill="white" transform="translate(0 0.332764)"/>
</clipPath>
</defs>
</svg>
